<svg xmlns="http://www.w3.org/2000/svg" viewBox="0 0 13.996 18">
  <defs>
    <style>
      .cls-1 {
        fill: #e71f63;
      }
    </style>
  </defs>
  <g id="refresh" transform="translate(-54.637)">
    <g id="Group_9911" data-name="Group 9911" transform="translate(54.637 0)">
      <path id="Path_2070" data-name="Path 2070" class="cls-1" d="M54.683,9.63a6.87,6.87,0,0,1,6.739-7.662V.122a.132.132,0,0,1,.213-.1l3.8,2.792a.117.117,0,0,1,0,.187L61.638,5.8a.132.132,0,0,1-.213-.1V3.859a4.974,4.974,0,0,0-4.5,3.049,4.913,4.913,0,0,0,.7,5.009.949.949,0,1,1-1.491,1.173A6.776,6.776,0,0,1,54.683,9.63ZM65.654,6.083a4.913,4.913,0,0,1,.7,5.009,4.969,4.969,0,0,1-4.5,3.049V12.3a.132.132,0,0,0-.213-.1l-3.8,2.792a.117.117,0,0,0,0,.187l3.8,2.792a.132.132,0,0,0,.213-.1V16.032A6.87,6.87,0,0,0,68.589,8.37a6.74,6.74,0,0,0-1.447-3.459.947.947,0,1,0-1.488,1.173Z" transform="translate(-54.637 0)"/>
    </g>
  </g>
</svg>
