<svg xmlns="http://www.w3.org/2000/svg" width="117.703" height="22.304" viewBox="0 0 117.703 22.304"><defs><style>.a{fill:#272d38;}.b{fill:#fff;}</style></defs><g transform="translate(-999.346 -1282.318)"><g transform="translate(1027.164 1285.932)"><path class="a" d="M1080.336,1302.941a1.548,1.548,0,0,0-.559-1.234,5.331,5.331,0,0,0-1.987-.867,8.33,8.33,0,0,1-3.127-1.41,2.8,2.8,0,0,1-1.1-2.3,2.958,2.958,0,0,1,1.208-2.419,4.941,4.941,0,0,1,3.126-.949,4.639,4.639,0,0,1,3.215,1.08,3.189,3.189,0,0,1,1.174,2.584l-.022.054h-1.931a1.969,1.969,0,0,0-.637-1.515,2.6,2.6,0,0,0-1.81-.581,2.658,2.658,0,0,0-1.7.484,1.519,1.519,0,0,0-.6,1.245,1.38,1.38,0,0,0,.648,1.152,7.1,7.1,0,0,0,2.14.861,7.109,7.109,0,0,1,2.973,1.455,3.035,3.035,0,0,1,1.02,2.359,2.84,2.84,0,0,1-1.218,2.409,5.2,5.2,0,0,1-3.182.9,5.628,5.628,0,0,1-3.336-1.014,3.126,3.126,0,0,1-1.393-2.766l.022-.049h1.942a1.914,1.914,0,0,0,.768,1.656,3.382,3.382,0,0,0,2,.544,2.923,2.923,0,0,0,1.745-.45A1.428,1.428,0,0,0,1080.336,1302.941Z" transform="translate(-1073.237 -1293.065)"/><path class="a" d="M1107.256,1311.246c-.066-.23-.133-.45-.176-.669s-.076-.434-.1-.648a3.461,3.461,0,0,1-1.1,1.059,2.729,2.729,0,0,1-1.515.433,2.959,2.959,0,0,1-2.162-.729,2.627,2.627,0,0,1-.757-1.992,2.346,2.346,0,0,1,1.031-2.036,4.978,4.978,0,0,1,2.907-.728h1.58v-.79a1.473,1.473,0,0,0-.416-1.109,1.98,1.98,0,0,0-2.294-.065,1.04,1.04,0,0,0-.405.855H1101.9l-.011-.049a2.23,2.23,0,0,1,.954-1.892,4.062,4.062,0,0,1,2.634-.823,3.869,3.869,0,0,1,2.545.8,2.814,2.814,0,0,1,.966,2.3v4a6.928,6.928,0,0,0,.076,1.076,6.407,6.407,0,0,0,.243,1Zm-2.48-1.453a2.62,2.62,0,0,0,1.382-.379,2,2,0,0,0,.812-.878V1307.2h-1.612a2.029,2.029,0,0,0-1.383.439,1.342,1.342,0,0,0-.5,1.027,1.072,1.072,0,0,0,.34.822A1.4,1.4,0,0,0,1104.776,1309.793Z" transform="translate(-1090.829 -1298.244)"/><path class="a" d="M1129.507,1304.921h-2.03v-13h2.03Z" transform="translate(-1107.057 -1291.918)"/><path class="a" d="M1142.219,1311.422a3.936,3.936,0,0,1-3.06-1.256,4.61,4.61,0,0,1-1.13-3.221v-.334a4.779,4.779,0,0,1,1.13-3.265,3.908,3.908,0,0,1,5.617-.181,4.324,4.324,0,0,1,.977,2.964v1.19h-5.628l-.021.045a2.908,2.908,0,0,0,.635,1.75,1.989,1.989,0,0,0,1.6.68,4.393,4.393,0,0,0,1.4-.2,4.481,4.481,0,0,0,1.119-.576l.648,1.328a3.945,3.945,0,0,1-1.35.762A5.557,5.557,0,0,1,1142.219,1311.422Zm-.241-7.736a1.516,1.516,0,0,0-1.228.594,2.982,2.982,0,0,0-.6,1.513l.022.045h3.576v-.21a2.185,2.185,0,0,0-.439-1.4A1.61,1.61,0,0,0,1141.978,1303.686Z" transform="translate(-1113.636 -1298.244)"/><path class="a" d="M1167.378,1308.794a.938.938,0,0,0-.4-.773,3.882,3.882,0,0,0-1.492-.543,6.1,6.1,0,0,1-2.446-.971,2.042,2.042,0,0,1-.834-1.711,2.46,2.46,0,0,1,.966-1.936,3.81,3.81,0,0,1,2.523-.8,3.953,3.953,0,0,1,2.622.812,2.423,2.423,0,0,1,.933,2.013l-.023.049h-1.942a1.269,1.269,0,0,0-.428-.96,1.62,1.62,0,0,0-1.163-.4,1.657,1.657,0,0,0-1.119.328,1.034,1.034,0,0,0-.385.807.9.9,0,0,0,.363.751,3.958,3.958,0,0,0,1.47.5,6.113,6.113,0,0,1,2.525.988,2.076,2.076,0,0,1,.822,1.733,2.366,2.366,0,0,1-1.009,1.975,4.242,4.242,0,0,1-2.644.762,4.057,4.057,0,0,1-2.777-.9,2.581,2.581,0,0,1-.966-2.069l.023-.049h1.876a1.37,1.37,0,0,0,.57,1.141,2.3,2.3,0,0,0,1.306.357,2.062,2.062,0,0,0,1.208-.3A.946.946,0,0,0,1167.378,1308.794Z" transform="translate(-1128.569 -1298.244)"/><path class="a" d="M1196.73,1306.358h-.993v-5.585h-6.9v5.585h-1v-12.134h1v5.7h6.9v-5.7h.993Z" transform="translate(-1144.694 -1293.356)"/><path class="a" d="M1224.124,1311.246c-.065-.307-.11-.57-.136-.8a4.477,4.477,0,0,1-.045-.675,4.038,4.038,0,0,1-1.333,1.181,3.811,3.811,0,0,1-1.875.465,2.839,2.839,0,0,1-2.047-.7,2.488,2.488,0,0,1-.73-1.875,2.32,2.32,0,0,1,1.081-2,4.985,4.985,0,0,1,2.914-.751h1.991v-1.119a1.93,1.93,0,0,0-.62-1.515,2.532,2.532,0,0,0-1.739-.549,2.778,2.778,0,0,0-1.728.521,1.564,1.564,0,0,0-.687,1.285l-.921-.005-.017-.05a2.154,2.154,0,0,1,.922-1.8,3.758,3.758,0,0,1,2.473-.8,3.622,3.622,0,0,1,2.4.756,2.664,2.664,0,0,1,.911,2.174v4.437a7.511,7.511,0,0,0,.054.921,5.624,5.624,0,0,0,.176.895Zm-3.276-.708a3.6,3.6,0,0,0,1.9-.5,3.041,3.041,0,0,0,1.19-1.289v-1.883h-2.008a3.688,3.688,0,0,0-2.172.577,1.716,1.716,0,0,0-.812,1.437,1.556,1.556,0,0,0,.5,1.2A1.992,1.992,0,0,0,1220.848,1310.538Z" transform="translate(-1163.474 -1298.244)"/><path class="a" d="M1244.431,1302.227l.093,1.575a3.1,3.1,0,0,1,2.919-1.739,2.775,2.775,0,0,1,2.234.894,4.248,4.248,0,0,1,.768,2.8v5.491h-1v-5.5a3.277,3.277,0,0,0-.575-2.194,2.112,2.112,0,0,0-1.646-.643,2.548,2.548,0,0,0-1.712.555,3.048,3.048,0,0,0-.954,1.47v6.309h-1v-9.019Z" transform="translate(-1179.432 -1298.244)"/><path class="a" d="M1267.754,1300.489a5.878,5.878,0,0,1,.91-3.457,2.936,2.936,0,0,1,2.546-1.294,3.186,3.186,0,0,1,1.636.4,3.307,3.307,0,0,1,1.152,1.13v-5.349h.986v13h-.883l-.083-1.311a3.123,3.123,0,0,1-1.157,1.1,3.485,3.485,0,0,1-1.668.383,3.007,3.007,0,0,1-2.53-1.207,5.209,5.209,0,0,1-.91-3.231Zm1,.175a4.637,4.637,0,0,0,.653,2.611,2.225,2.225,0,0,0,1.974.971,2.835,2.835,0,0,0,1.614-.439,2.945,2.945,0,0,0,1-1.2v-4.253a3.216,3.216,0,0,0-.971-1.278,2.545,2.545,0,0,0-1.63-.489,2.163,2.163,0,0,0-1.98,1.081,5.324,5.324,0,0,0-.664,2.82Z" transform="translate(-1194.525 -1291.918)"/><path class="a" d="M1294.885,1309.077l.318,1.076h.05l2.727-7.654h1.114l-3.917,10.462a5.091,5.091,0,0,1-.906,1.558,2.052,2.052,0,0,1-1.635.642,3.3,3.3,0,0,1-.422-.039,2.1,2.1,0,0,1-.367-.082l.115-.833c.065.011.175.027.323.038a3.015,3.015,0,0,0,.319.022,1.3,1.3,0,0,0,1.042-.461,4.063,4.063,0,0,0,.669-1.19l.472-1.218-3.483-8.9h1.108Z" transform="translate(-1209.208 -1298.516)"/></g><path class="a" d="M1020.3,1282.318h-19.616a1.347,1.347,0,0,0-1.342,1.342v19.62a1.343,1.343,0,0,0,1.342,1.342H1020.3a1.343,1.343,0,0,0,1.342-1.342v-19.62A1.347,1.347,0,0,0,1020.3,1282.318Z" transform="translate(0 0)"/><g transform="translate(1002.573 1288.151)"><g transform="translate(0)"><path class="b" d="M1009.571,1305.031c1.036,1.261,3.32,1.318,3.392.206.028-.583-.922-.922-1.768-1.036-1.667-.263-3.187-1.314-3.187-3.287,0-2.035,1.839-3.1,3.741-3.1a4.238,4.238,0,0,1,3.535,1.653l-1.71,1.313c-1.079-1.156-2.938-1.108-2.98.086.028.5.573.793,1.376.965,1.839.34,3.682.979,3.563,3.525-.086,2-2.192,3.1-4.09,3.1a4.538,4.538,0,0,1-3.525-1.868Z" transform="translate(-1007.918 -1297.813)"/></g><g transform="translate(7.28 0.148)"><path class="b" d="M1029.888,1308.553h-2.633v-10.347h2.633v3.917h2.981v-3.917h2.632v10.347h-2.632v-3.9h-2.981Z" transform="translate(-1027.255 -1298.205)"/></g></g></g></svg>